<svg xmlns="http://www.w3.org/2000/svg" xmlns:xlink="http://www.w3.org/1999/xlink" width="100" zoomAndPan="magnify" viewBox="0 0 75 74.999997" height="100" preserveAspectRatio="xMidYMid meet" version="1.0"><defs><clipPath id="35de5b7255"><path d="M 25 58 L 53.757812 58 L 53.757812 63.886719 L 25 63.886719 Z M 25 58 " clip-rule="nonzero"/></clipPath><clipPath id="98a8eaf4de"><path d="M 22 11.386719 L 53.757812 11.386719 L 53.757812 54 L 22 54 Z M 22 11.386719 " clip-rule="nonzero"/></clipPath></defs><g clip-path="url(#35de5b7255)"><path fill="#bd2120" d="M 50.335938 58.941406 L 28.472656 58.941406 C 26.867188 58.941406 25.5625 60.339844 25.5625 62.066406 L 25.5625 63.605469 L 53.242188 63.605469 L 53.242188 62.066406 C 53.242188 60.339844 51.941406 58.941406 50.335938 58.941406 " fill-opacity="1" fill-rule="nonzero"/></g><path fill="#bd2120" d="M 50.128906 58.089844 L 50.128906 55.84375 C 50.128906 55.277344 49.703125 54.816406 49.175781 54.816406 L 29.628906 54.816406 C 29.105469 54.816406 28.675781 55.277344 28.675781 55.84375 L 28.675781 58.089844 C 28.675781 58.089844 28.675781 58.09375 28.675781 58.09375 L 50.132812 58.09375 C 50.132812 58.09375 50.128906 58.089844 50.128906 58.089844 " fill-opacity="1" fill-rule="nonzero"/><g clip-path="url(#98a8eaf4de)"><path fill="#bd2120" d="M 52.296875 39.28125 L 50.351562 36.566406 C 50.351562 36.566406 51.191406 37.082031 52.375 37.753906 C 52.511719 35.503906 52.746094 33.015625 53.117188 30.347656 C 53.414062 28.222656 53.46875 26.390625 53.328125 24.8125 L 51.042969 22.777344 L 53.144531 23.441406 C 51.191406 12.640625 38.671875 15.191406 33.339844 11.386719 L 35.039062 15.851562 C 35.039062 15.851562 30.859375 17.171875 29.753906 20.109375 C 27.480469 26.15625 24.175781 27.003906 23.707031 27.09375 C 23.609375 27.113281 23.507812 27.144531 23.417969 27.191406 C 22.820312 27.484375 21.519531 28.683594 24.535156 33.1875 C 25.28125 34.449219 26.800781 34.890625 28.039062 34.203125 C 29.25 33.53125 30.132812 32.808594 31.894531 33.050781 C 37.746094 33.863281 38.375 30.550781 39.695312 29.539062 C 39.695312 29.539062 39.253906 33.59375 33.058594 39.167969 C 28.953125 42.863281 25.324219 47.277344 27.867188 50.152344 C 29.242188 51.707031 29.945312 53.972656 29.945312 53.972656 L 49.320312 53.972656 C 49.320312 53.972656 45.90625 48.96875 48.933594 48.800781 C 50.652344 48.707031 52.519531 50.019531 52.519531 50.019531 C 52.519531 50.019531 52.007812 45.847656 52.296875 39.28125 " fill-opacity="1" fill-rule="nonzero"/></g></svg>