<svg xmlns="http://www.w3.org/2000/svg" xmlns:xlink="http://www.w3.org/1999/xlink" width="100" zoomAndPan="magnify" viewBox="0 0 75 74.999997" height="100" preserveAspectRatio="xMidYMid meet" version="1.0"><defs><clipPath id="091c7b7c4d"><path d="M 23 8.332031 L 52 8.332031 L 52 66.832031 L 23 66.832031 Z M 23 8.332031 " clip-rule="nonzero"/></clipPath></defs><g clip-path="url(#091c7b7c4d)"><path fill="#bd2120" d="M 50.191406 62.425781 C 52.183594 60.523438 50.953125 59.070312 46.988281 58.003906 L 46.988281 57.097656 C 48.792969 56.453125 48.511719 55.761719 46.039062 55.023438 L 46.085938 54.433594 C 47.539062 53.871094 47.574219 53.496094 46.542969 53.261719 C 47.597656 52.429688 47.433594 51.796875 45.90625 51.363281 C 42.164062 50.246094 41.027344 44.863281 41.507812 36.8125 C 43.117188 36.894531 43.046875 36.34375 42.234375 35.511719 C 43.867188 35.640625 43.761719 35.054688 43.234375 34.300781 C 46.742188 33.644531 46.742188 32.742188 43.960938 31.625 C 44.910156 30.898438 44.628906 30.371094 42.597656 30.136719 C 43.457031 29.210938 43.175781 28.648438 41.34375 28.554688 C 41.273438 28.175781 41.332031 27.929688 41.507812 27.8125 C 42.679688 27.507812 42.65625 27.074219 41.542969 26.523438 C 41.953125 26.453125 42.351562 26.300781 42.703125 26.089844 C 43.292969 25.75 43.75 25.410156 44.03125 25.054688 C 47.292969 21.429688 46.097656 17.359375 40.546875 12.855469 C 39.960938 13.546875 39.65625 15.460938 39.492188 17.992188 C 39.441406 18.78125 39.019531 19.496094 38.351562 19.917969 C 37.214844 20.632812 36.335938 20.269531 36.085938 18.589844 C 36.039062 18.238281 36.074219 17.875 36.191406 17.546875 C 37.507812 13.746094 39.171875 9.195312 38.878906 8.832031 C 38.152344 8.394531 37.367188 8.453125 36.523438 8.832031 C 35.324219 9.699219 35.335938 10.554688 36.710938 11.398438 C 34.902344 12.726562 33.25 14.226562 31.734375 15.917969 C 31.394531 16.292969 31.089844 16.691406 30.820312 17.113281 C 28.320312 21.136719 28.871094 24.152344 32.554688 26.148438 C 32.847656 26.3125 33.167969 26.417969 33.496094 26.488281 C 32.34375 27.050781 32.308594 27.496094 33.496094 27.800781 C 33.671875 27.90625 33.730469 28.152344 33.660156 28.542969 C 31.828125 28.636719 31.546875 29.210938 32.402344 30.125 C 30.363281 30.359375 30.09375 30.886719 31.042969 31.613281 C 28.261719 32.730469 28.261719 33.632812 31.769531 34.289062 C 31.242188 35.042969 31.136719 35.628906 32.765625 35.5 C 31.957031 36.332031 31.886719 36.871094 33.496094 36.800781 C 33.976562 44.851562 32.835938 50.234375 29.09375 51.351562 C 27.570312 51.773438 27.40625 52.417969 28.460938 53.25 C 27.417969 53.484375 27.453125 53.859375 28.917969 54.421875 L 28.964844 55.011719 C 26.492188 55.75 26.207031 56.441406 28.015625 57.085938 L 28.015625 57.992188 C 24.050781 59.070312 22.804688 60.511719 24.8125 62.414062 C 23.347656 63.175781 23.039062 63.925781 23.628906 64.679688 C 23.851562 64.960938 24.167969 65.148438 24.519531 65.230469 C 28.554688 66.085938 32.8125 66.601562 37.484375 66.460938 C 42.152344 66.589844 46.414062 66.085938 50.449219 65.230469 C 50.800781 65.160156 51.117188 64.960938 51.339844 64.679688 C 51.925781 63.925781 51.632812 63.175781 50.191406 62.425781 Z M 50.191406 62.425781 " fill-opacity="1" fill-rule="nonzero"/></g></svg>