<svg xmlns="http://www.w3.org/2000/svg" xmlns:xlink="http://www.w3.org/1999/xlink" width="100" zoomAndPan="magnify" viewBox="0 0 75 74.999997" height="100" preserveAspectRatio="xMidYMid meet" version="1.0"><defs><clipPath id="b9ba9574ee"><path d="M 48 43.4375 L 50.480469 43.4375 L 50.480469 51.6875 L 48 51.6875 Z M 48 43.4375 " clip-rule="nonzero"/></clipPath><clipPath id="196624ea1c"><path d="M 44.480469 43.4375 L 47 43.4375 L 47 51.6875 L 44.480469 51.6875 Z M 44.480469 43.4375 " clip-rule="nonzero"/></clipPath><clipPath id="a328974bf4"><path d="M 16.144531 1.90625 L 58.894531 1.90625 L 58.894531 73.15625 L 16.144531 73.15625 Z M 16.144531 1.90625 " clip-rule="nonzero"/></clipPath></defs><g clip-path="url(#b9ba9574ee)"><path fill="#000000" d="M 48.339844 44.355469 L 48.125 44.355469 L 48.125 43.4375 L 48.339844 43.4375 C 49.046875 43.4375 49.625 44.054688 49.625 44.8125 L 49.625 46.417969 C 49.625 46.5625 49.6875 46.699219 49.792969 46.785156 L 50.308594 47.199219 C 50.410156 47.28125 50.472656 47.40625 50.480469 47.546875 C 50.484375 47.683594 50.433594 47.816406 50.335938 47.90625 L 49.765625 48.449219 C 49.675781 48.535156 49.625 48.660156 49.625 48.789062 L 49.625 50.3125 C 49.625 51.074219 49.046875 51.6875 48.339844 51.6875 L 48.125 51.6875 L 48.125 50.773438 L 48.339844 50.773438 C 48.574219 50.773438 48.765625 50.566406 48.765625 50.3125 L 48.765625 48.789062 C 48.765625 48.398438 48.925781 48.023438 49.199219 47.761719 L 49.375 47.59375 L 49.28125 47.519531 C 48.957031 47.257812 48.765625 46.851562 48.765625 46.417969 L 48.765625 44.8125 C 48.765625 44.5625 48.574219 44.355469 48.339844 44.355469 Z M 48.339844 44.355469 " fill-opacity="1" fill-rule="evenodd"/></g><g clip-path="url(#196624ea1c)"><path fill="#000000" d="M 46.625 44.355469 L 46.839844 44.355469 L 46.839844 43.4375 L 46.625 43.4375 C 45.914062 43.4375 45.339844 44.054688 45.339844 44.8125 L 45.339844 46.417969 C 45.339844 46.5625 45.277344 46.699219 45.167969 46.785156 L 44.65625 47.199219 C 44.550781 47.28125 44.488281 47.40625 44.484375 47.546875 C 44.480469 47.683594 44.53125 47.816406 44.628906 47.90625 L 45.195312 48.449219 C 45.289062 48.535156 45.339844 48.660156 45.339844 48.789062 L 45.339844 50.3125 C 45.339844 51.074219 45.914062 51.6875 46.625 51.6875 L 46.839844 51.6875 L 46.839844 50.773438 L 46.625 50.773438 C 46.390625 50.773438 46.195312 50.566406 46.195312 50.3125 L 46.195312 48.789062 C 46.195312 48.398438 46.039062 48.023438 45.765625 47.761719 L 45.589844 47.59375 L 45.683594 47.519531 C 46.007812 47.257812 46.195312 46.851562 46.195312 46.417969 L 46.195312 44.8125 C 46.195312 44.5625 46.390625 44.355469 46.625 44.355469 Z M 46.625 44.355469 " fill-opacity="1" fill-rule="evenodd"/></g><path fill="#232846" d="M 52.898438 71.964844 L 22.023438 71.964844 C 19.402344 71.964844 17.273438 69.835938 17.273438 67.21875 L 17.273438 7.847656 C 17.273438 5.222656 19.402344 3.097656 22.023438 3.097656 L 52.898438 3.097656 C 55.523438 3.097656 57.648438 5.222656 57.648438 7.847656 L 57.648438 67.21875 C 57.648438 69.835938 55.523438 71.964844 52.898438 71.964844 " fill-opacity="1" fill-rule="nonzero"/><path fill="#b9e2e2" d="M 45.773438 3.097656 L 45.773438 5.472656 C 45.773438 6.78125 44.703125 7.847656 43.398438 7.847656 L 31.523438 7.847656 C 30.21875 7.847656 29.148438 6.78125 29.148438 5.472656 L 29.148438 3.097656 L 45.773438 3.097656 " fill-opacity="1" fill-rule="nonzero"/><path fill="#f03e51" d="M 28.019531 24.472656 L 23.269531 24.472656 C 22.617188 24.472656 22.082031 23.9375 22.082031 23.285156 L 22.082031 18.535156 C 22.082031 17.878906 22.617188 17.347656 23.269531 17.347656 L 28.019531 17.347656 C 28.671875 17.347656 29.207031 17.878906 29.207031 18.535156 L 29.207031 23.285156 C 29.207031 23.9375 28.671875 24.472656 28.019531 24.472656 " fill-opacity="1" fill-rule="nonzero"/><path fill="#524da9" d="M 39.894531 24.472656 L 35.144531 24.472656 C 34.492188 24.472656 33.957031 23.9375 33.957031 23.285156 L 33.957031 18.535156 C 33.957031 17.878906 34.492188 17.347656 35.144531 17.347656 L 39.894531 17.347656 C 40.546875 17.347656 41.082031 17.878906 41.082031 18.535156 L 41.082031 23.285156 C 41.082031 23.9375 40.546875 24.472656 39.894531 24.472656 " fill-opacity="1" fill-rule="nonzero"/><path fill="#f4b323" d="M 51.769531 24.472656 L 47.019531 24.472656 C 46.367188 24.472656 45.832031 23.9375 45.832031 23.285156 L 45.832031 18.535156 C 45.832031 17.878906 46.367188 17.347656 47.019531 17.347656 L 51.769531 17.347656 C 52.421875 17.347656 52.957031 17.878906 52.957031 18.535156 L 52.957031 23.285156 C 52.957031 23.9375 52.421875 24.472656 51.769531 24.472656 " fill-opacity="1" fill-rule="nonzero"/><path fill="#5ac7be" d="M 28.019531 37.53125 L 23.269531 37.53125 C 22.617188 37.53125 22.082031 37 22.082031 36.34375 L 22.082031 31.597656 C 22.082031 30.941406 22.617188 30.410156 23.269531 30.410156 L 28.019531 30.410156 C 28.671875 30.410156 29.207031 30.941406 29.207031 31.597656 L 29.207031 36.34375 C 29.207031 37 28.671875 37.53125 28.019531 37.53125 " fill-opacity="1" fill-rule="nonzero"/><path fill="#45bc5d" d="M 39.894531 37.53125 L 35.144531 37.53125 C 34.492188 37.53125 33.957031 37 33.957031 36.34375 L 33.957031 31.597656 C 33.957031 30.941406 34.492188 30.410156 35.144531 30.410156 L 39.894531 30.410156 C 40.546875 30.410156 41.082031 30.941406 41.082031 31.597656 L 41.082031 36.34375 C 41.082031 37 40.546875 37.53125 39.894531 37.53125 " fill-opacity="1" fill-rule="nonzero"/><path fill="#ffffff" d="M 51.769531 37.53125 L 47.019531 37.53125 C 46.367188 37.53125 45.832031 37 45.832031 36.34375 L 45.832031 31.597656 C 45.832031 30.941406 46.367188 30.410156 47.019531 30.410156 L 51.769531 30.410156 C 52.421875 30.410156 52.957031 30.941406 52.957031 31.597656 L 52.957031 36.34375 C 52.957031 37 52.421875 37.53125 51.769531 37.53125 " fill-opacity="1" fill-rule="nonzero"/><path fill="#426abc" d="M 28.019531 50.59375 L 23.269531 50.59375 C 22.617188 50.59375 22.082031 50.058594 22.082031 49.40625 L 22.082031 44.65625 C 22.082031 44.003906 22.617188 43.46875 23.269531 43.46875 L 28.019531 43.46875 C 28.671875 43.46875 29.207031 44.003906 29.207031 44.65625 L 29.207031 49.40625 C 29.207031 50.058594 28.671875 50.59375 28.019531 50.59375 " fill-opacity="1" fill-rule="nonzero"/><path fill="#524da9" d="M 39.894531 50.59375 L 35.144531 50.59375 C 34.492188 50.59375 33.957031 50.058594 33.957031 49.40625 L 33.957031 44.65625 C 33.957031 44.003906 34.492188 43.46875 35.144531 43.46875 L 39.894531 43.46875 C 40.546875 43.46875 41.082031 44.003906 41.082031 44.65625 L 41.082031 49.40625 C 41.082031 50.058594 40.546875 50.59375 39.894531 50.59375 " fill-opacity="1" fill-rule="nonzero"/><path fill="#111625" d="M 45.773438 68.402344 L 29.148438 68.402344 C 28.492188 68.402344 27.960938 67.871094 27.960938 67.21875 C 27.960938 66.5625 28.492188 66.03125 29.148438 66.03125 L 45.773438 66.03125 C 46.429688 66.03125 46.960938 66.5625 46.960938 67.21875 C 46.960938 67.871094 46.429688 68.402344 45.773438 68.402344 " fill-opacity="1" fill-rule="nonzero"/><g clip-path="url(#a328974bf4)"><path fill="#b9e2e2" d="M 22.082031 4.285156 C 20.117188 4.285156 18.519531 5.882812 18.519531 7.847656 L 18.519531 67.21875 C 18.519531 69.183594 20.117188 70.777344 22.082031 70.777344 L 52.957031 70.777344 C 54.925781 70.777344 56.519531 69.183594 56.519531 67.21875 L 56.519531 7.847656 C 56.519531 5.882812 54.925781 4.285156 52.957031 4.285156 Z M 52.957031 73.152344 L 22.082031 73.152344 C 18.808594 73.152344 16.144531 70.492188 16.144531 67.21875 L 16.144531 7.847656 C 16.144531 4.574219 18.808594 1.910156 22.082031 1.910156 L 52.957031 1.910156 C 56.230469 1.910156 58.894531 4.574219 58.894531 7.847656 L 58.894531 67.21875 C 58.894531 70.492188 56.230469 73.152344 52.957031 73.152344 " fill-opacity="1" fill-rule="nonzero"/></g></svg>